<svg width="32" height="32" viewBox="0 0 32 32" fill="none" xmlns="http://www.w3.org/2000/svg">
  <!-- 背景渐变 -->
  <defs>
    <linearGradient id="bg" x1="0" y1="0" x2="32" y2="32" gradientUnits="userSpaceOnUse">
      <stop offset="0%" stop-color="#4A148C"/>
      <stop offset="100%" stop-color="#1A237E"/>
    </linearGradient>
    <!-- 发光效果 -->
    <filter id="glow" x="-50%" y="-50%" width="200%" height="200%">
      <feGaussianBlur in="SourceGraphic" stdDeviation="1" result="blur"/>
      <feComposite in="blur" in2="SourceGraphic" operator="over"/>
    </filter>
  </defs>
  
  <!-- 主背景 -->
  <path d="M6 0H26C29.3137 0 32 2.68629 32 6V26C32 29.3137 29.3137 32 26 32H6C2.68629 32 0 29.3137 0 26V6C0 2.68629 2.68629 0 6 0Z" fill="url(#bg)"/>
  
  <!-- 神经网络节点 -->
  <circle cx="8" cy="8" r="2" fill="#ffffff" opacity="0.6"/>
  <circle cx="24" cy="8" r="2" fill="#ffffff" opacity="0.6"/>
  <circle cx="8" cy="24" r="2" fill="#ffffff" opacity="0.6"/>
  <circle cx="24" cy="24" r="2" fill="#ffffff" opacity="0.6"/>
  <circle cx="16" cy="16" r="3" fill="#ffffff" opacity="0.8" filter="url(#glow)"/>
  
  <!-- 神经元连接线 -->
  <path d="M8 8L16 16M24 8L16 16M8 24L16 16M24 24L16 16" stroke="#ffffff" stroke-width="1" stroke-linecap="round" opacity="0.4"/>
  
  <!-- AI文字 -->
  <text x="16" y="20" font-family="Arial Black, sans-serif" font-size="14" font-weight="900" fill="white" text-anchor="middle" filter="url(#glow)">AI</text>
</svg>